<svg xmlns="http://www.w3.org/2000/svg" viewBox="0 0 32 32" fill="none">
  <defs>
    <linearGradient id="g" x1="0" y1="0" x2="32" y2="32">
      <stop offset="0%" stop-color="#8b5cf6"/>
      <stop offset="100%" stop-color="#4f46e5"/>
    </linearGradient>
  </defs>
  <rect width="32" height="32" rx="8" fill="url(#g)"/>
  <path d="M8 10c0-.6.4-1 1-1h4l2 3h8c.6 0 1 .4 1 1v2c0 .6-.4 1-1 1H9c-.6 0-1-.4-1-1v-5z" fill="rgba(255,255,255,0.3)"/>
  <path d="M8 13h16v8c0 .6-.4 1-1 1H9c-.6 0-1-.4-1-1v-8z" fill="white"/>
  <circle cx="13" cy="17" r="1.5" fill="#8b5cf6"/>
  <circle cx="19" cy="17" r="1.5" fill="#8b5cf6"/>
</svg>
